<svg width="28" height="28" viewBox="0 0 28 28" fill="none" xmlns="http://www.w3.org/2000/svg">
<path d="M4.40044 1.4619L14.0004 11.0619L23.6004 1.491C23.7895 1.29867 24.0163 1.14766 24.2667 1.04752C24.5171 0.94737 24.7855 0.900264 25.055 0.909177C25.5838 0.943401 26.0821 1.16893 26.4569 1.54366C26.8316 1.91839 27.0571 2.4167 27.0914 2.94554C27.094 3.20556 27.0438 3.46341 26.9438 3.70344C26.8437 3.94347 26.696 4.16068 26.5095 4.3419L16.8804 14.0001L26.5095 23.6583C26.8877 24.0248 27.0972 24.531 27.0914 25.0546C27.0571 25.5835 26.8316 26.0818 26.4569 26.4565C26.0821 26.8312 25.5838 27.0568 25.055 27.091C24.7855 27.0999 24.5171 27.0528 24.2667 26.9527C24.0163 26.8525 23.7895 26.7015 23.6004 26.5092L14.0004 16.9383L4.42953 26.5092C4.24052 26.7015 4.01365 26.8525 3.76329 26.9527C3.51292 27.0528 3.24449 27.0999 2.97499 27.091C2.43628 27.063 1.92706 26.8363 1.54562 26.4549C1.16418 26.0735 0.937572 25.5642 0.909531 25.0255C0.906899 24.7655 0.957112 24.5077 1.05713 24.2676C1.15714 24.0276 1.30487 23.8104 1.49135 23.6292L11.1204 14.0001L1.46226 4.3419C1.28103 4.15824 1.13867 3.93992 1.04371 3.7C0.94874 3.46009 0.903106 3.20349 0.909531 2.94554C0.943755 2.4167 1.16929 1.91839 1.54402 1.54366C1.91875 1.16893 2.41705 0.943401 2.94589 0.909177C3.2133 0.896476 3.48046 0.938999 3.73072 1.0341C3.98097 1.12919 4.20895 1.27482 4.40044 1.4619Z" fill="black"/>
</svg>
